# xmcd
#
# Track frame offsets: 
#        150
#        13147
#        26761
#        42285
#        57610
#        72220
#        86244
#        101332
#        116112
#        129585
#        142431
#        156229
#        170919
#        184679
#        198847
#        212300
#        227160
#        241785
#        255012
#        267945
#        280279
#        292127
#
# Disc length: 4050 seconds
#
# Revision: 0
# Processed by: cddbd v1.5.2PL0 Copyright (c) Steve Scherf et al.
# Submitted via: ExactAudioCopyFreeDBPlugin 1.0
#
DISCID=4e0fd016
DTITLE=Clara Smith - Complete Recorded Works Vol. 6 (1930-1932)
DYEAR=1995
DGENRE=Blues
TTITLE0=Don't Fool Around on Me
TTITLE1=Down in the Mouf' Blues
TTITLE2=Low Land Moan
TTITLE3=Woman to Woman
TTITLE4=You're Getting Old on Your Job
TTITLE5=What Makes You Act Like That?
TTITLE6=You Had Too Much
TTITLE7=Don't Wear It Out
TTITLE8=I Want a Two-Fisted Double-Jointed Man
TTITLE9=Good Times (Come On Back Once More)
TTITLE10=Ol' Sam Tages
TTITLE11=Unemployed Papa -- Charity Working Mama
TTITLE12=For Sale (Hannah Johnson's Jack Ass)
TTITLE13=You Dirty Dog
TTITLE14=Street Department Papa
TTITLE15=Pictures on the Wall
TTITLE16=(I'm Tired Of) Fattenin' Frogs for Snakes
TTITLE17=So Long Jim
TTITLE18=Wandering Boy Blues
TTITLE19=Sand Raisin' Blues
TTITLE20=Clara Blues
TTITLE21=After You've Gone Away
EXTD=
EXTT0=
EXTT1=
EXTT2=
EXTT3=
EXTT4=
EXTT5=
EXTT6=
EXTT7=
EXTT8=
EXTT9=
EXTT10=
EXTT11=
EXTT12=
EXTT13=
EXTT14=
EXTT15=
EXTT16=
EXTT17=
EXTT18=
EXTT19=
EXTT20=
EXTT21=
PLAYORDER=
